<svg xmlns="http://www.w3.org/2000/svg" width="960" height="540" viewBox="0 0 960 540">
  <defs>
    <linearGradient id="space" x1="0" y1="0" x2="1" y2="1">
      <stop offset="0" stop-color="#05070f"/>
      <stop offset="0.55" stop-color="#15284d"/>
      <stop offset="1" stop-color="#1d4e89"/>
    </linearGradient>
  </defs>
  <rect width="960" height="540" fill="url(#space)"/>
  <text x="48" y="58" fill="#ffffff" font-size="30" font-family="Arial, sans-serif" font-weight="700">AI 视频模型：只放在氛围 B-roll，不放关键信息</text>
  <text x="48" y="92" fill="#c4d2ea" font-size="17" font-family="Arial, sans-serif">适合做：机房、电表、餐厅窗口、抽象数据流；文字、表格、UI 另行叠加</text>

  <rect x="120" y="172" width="220" height="160" rx="18" fill="#121826" stroke="#4cc9f0"/>
  <rect x="158" y="206" width="40" height="92" fill="#26364f"/>
  <rect x="214" y="206" width="40" height="92" fill="#26364f"/>
  <rect x="270" y="206" width="40" height="92" fill="#26364f"/>
  <circle cx="178" cy="228" r="5" fill="#5eead4"/>
  <circle cx="234" cy="252" r="5" fill="#5eead4"/>
  <circle cx="290" cy="276" r="5" fill="#5eead4"/>

  <path d="M382 253 C480 150 590 150 690 253" stroke="#7dd3fc" stroke-width="5" fill="none" opacity="0.75"/>
  <path d="M382 286 C500 390 610 390 728 286" stroke="#facc15" stroke-width="5" fill="none" opacity="0.75"/>
  <circle cx="742" cy="270" r="74" fill="#dff6ff" opacity="0.96"/>
  <path d="M702 270 C724 236 758 232 790 252 C774 298 734 312 702 270Z" fill="#1d4e89"/>

  <rect x="100" y="388" width="760" height="58" rx="12" fill="#0b1020" opacity="0.86"/>
  <text x="130" y="424" fill="#ffffff" font-size="20" font-family="Arial, sans-serif" font-weight="700">后期叠加：字幕、箭头、数字、事实边界</text>
  <text x="130" y="468" fill="#ffd1d6" font-size="16" font-family="Arial, sans-serif">不要让 AI 视频模型直接生成“官方价格表”或“真实 UI 文案”。</text>
</svg>
