<svg xmlns="http://www.w3.org/2000/svg" width="960" height="540" viewBox="0 0 960 540">
  <rect width="960" height="540" fill="#f7f8fb"/>
  <text x="48" y="58" fill="#14171f" font-size="30" font-family="Arial, sans-serif" font-weight="700">Motion Canvas：流程图、箭头、分层解释</text>
  <text x="48" y="92" fill="#5b6472" font-size="17" font-family="Arial, sans-serif">适合做：产品层 / 路由层 / 模型层，按旁白逐步点亮</text>

  <rect x="88" y="158" width="190" height="96" rx="16" fill="#ffffff" stroke="#d6dbe6" stroke-width="2"/>
  <text x="134" y="194" fill="#222" font-size="20" font-family="Arial, sans-serif" font-weight="700">用户问题</text>
  <text x="116" y="224" fill="#687080" font-size="15" font-family="Arial, sans-serif">保险条款有哪些坑？</text>

  <rect x="380" y="138" width="200" height="136" rx="18" fill="#1b2430"/>
  <text x="432" y="180" fill="#fff" font-size="22" font-family="Arial, sans-serif" font-weight="700">豆包产品层</text>
  <rect x="418" y="206" width="124" height="36" rx="18" fill="#ff3b52"/>
  <text x="449" y="230" fill="#fff" font-size="16" font-family="Arial, sans-serif">模式入口</text>

  <rect x="686" y="88" width="190" height="78" rx="16" fill="#dff6ff" stroke="#56c3e6" stroke-width="2"/>
  <text x="738" y="134" fill="#14212b" font-size="20" font-family="Arial, sans-serif" font-weight="700">快速模型</text>
  <rect x="686" y="224" width="190" height="78" rx="16" fill="#fff0d7" stroke="#f7b84b" stroke-width="2"/>
  <text x="738" y="270" fill="#2b2114" font-size="20" font-family="Arial, sans-serif" font-weight="700">专家模型</text>
  <rect x="686" y="360" width="190" height="78" rx="16" fill="#ece8ff" stroke="#8b7cf6" stroke-width="2"/>
  <text x="739" y="406" fill="#211a45" font-size="20" font-family="Arial, sans-serif" font-weight="700">API Pro</text>

  <path d="M278 206 C318 206 338 206 378 206" stroke="#6172f3" stroke-width="5" fill="none" marker-end="url(#arrowBlue)"/>
  <path d="M580 196 C632 172 638 128 684 127" stroke="#56c3e6" stroke-width="5" fill="none" marker-end="url(#arrowCyan)"/>
  <path d="M580 222 C630 232 640 260 684 262" stroke="#f7b84b" stroke-width="5" fill="none" marker-end="url(#arrowGold)"/>
  <path d="M580 248 C632 292 638 388 684 398" stroke="#8b7cf6" stroke-width="5" fill="none" marker-end="url(#arrowPurple)"/>

  <rect x="96" y="356" width="430" height="94" rx="12" fill="#111827"/>
  <text x="122" y="388" fill="#9ce8ff" font-size="15" font-family="Menlo, Consolas, monospace">yield* routeArrow().draw(1, 0.8);</text>
  <text x="122" y="416" fill="#ffd166" font-size="15" font-family="Menlo, Consolas, monospace">yield* expertCard().scale(1.08, spring);</text>

  <defs>
    <marker id="arrowBlue" markerWidth="12" markerHeight="12" refX="10" refY="6" orient="auto"><path d="M2,2 L10,6 L2,10 Z" fill="#6172f3"/></marker>
    <marker id="arrowCyan" markerWidth="12" markerHeight="12" refX="10" refY="6" orient="auto"><path d="M2,2 L10,6 L2,10 Z" fill="#56c3e6"/></marker>
    <marker id="arrowGold" markerWidth="12" markerHeight="12" refX="10" refY="6" orient="auto"><path d="M2,2 L10,6 L2,10 Z" fill="#f7b84b"/></marker>
    <marker id="arrowPurple" markerWidth="12" markerHeight="12" refX="10" refY="6" orient="auto"><path d="M2,2 L10,6 L2,10 Z" fill="#8b7cf6"/></marker>
  </defs>
</svg>
