<svg xmlns="http://www.w3.org/2000/svg" width="960" height="540" viewBox="0 0 960 540">
  <rect width="960" height="540" fill="#ffffff"/>
  <text x="48" y="58" fill="#14171f" font-size="30" font-family="Arial, sans-serif" font-weight="700">D3 / Observable / Vega-Lite：数据图和表格动起来</text>
  <text x="48" y="92" fill="#5b6472" font-size="17" font-family="Arial, sans-serif">适合做：模型档位、成本阶梯、价格条、表格高亮；数据必须可控</text>

  <line x1="110" y1="430" x2="610" y2="430" stroke="#222" stroke-width="2"/>
  <line x1="110" y1="150" x2="110" y2="430" stroke="#222" stroke-width="2"/>
  <text x="86" y="143" fill="#333" font-size="14" font-family="Arial, sans-serif">成本</text>
  <text x="590" y="462" fill="#333" font-size="14" font-family="Arial, sans-serif">档位</text>

  <rect x="150" y="340" width="70" height="90" fill="#60a5fa"/>
  <rect x="270" y="286" width="70" height="144" fill="#34d399"/>
  <rect x="390" y="220" width="70" height="210" fill="#fbbf24"/>
  <rect x="510" y="168" width="70" height="262" fill="#fb7185"/>
  <text x="160" y="456" fill="#333" font-size="16" font-family="Arial, sans-serif">Mini</text>
  <text x="282" y="456" fill="#333" font-size="16" font-family="Arial, sans-serif">Flash</text>
  <text x="404" y="456" fill="#333" font-size="16" font-family="Arial, sans-serif">Lite</text>
  <text x="526" y="456" fill="#333" font-size="16" font-family="Arial, sans-serif">Pro</text>

  <rect x="672" y="152" width="220" height="250" rx="12" fill="#f8fafc" stroke="#d5dae4"/>
  <text x="700" y="190" fill="#111827" font-size="20" font-family="Arial, sans-serif" font-weight="700">表格也可以动画化</text>
  <line x1="692" y1="220" x2="872" y2="220" stroke="#d5dae4"/>
  <text x="704" y="252" fill="#4b5563" font-size="15" font-family="Arial, sans-serif">快速：天气 / 翻译</text>
  <rect x="692" y="270" width="180" height="38" rx="8" fill="#fff2c2"/>
  <text x="704" y="294" fill="#111827" font-size="15" font-family="Arial, sans-serif">专家：合同 / 保险</text>
  <text x="704" y="338" fill="#4b5563" font-size="15" font-family="Arial, sans-serif">Pro：企业 API</text>
  <text x="704" y="374" fill="#4b5563" font-size="15" font-family="Arial, sans-serif">动画：逐行高亮</text>
</svg>
